<svg width="193" height="188" viewBox="0 0 193 188" fill="none" xmlns="http://www.w3.org/2000/svg">
<path fill-rule="evenodd" clip-rule="evenodd" d="M175.43 77.6782C186.084 69.852 193 57.2336 193 43C193 19.2518 173.748 0 150 0C137.088 0 125.504 5.69144 117.622 14.7025C108.64 11.6536 99.0131 10 89 10C39.8467 10 0 49.8467 0 99C0 148.153 39.8467 188 89 188C138.153 188 178 148.153 178 99C178 91.6507 177.109 84.5094 175.43 77.6782ZM150 86C159.515 86 168.307 82.9098 175.43 77.6782C168.165 48.1289 146.141 24.3828 117.622 14.7025C111.008 22.2645 107 32.1642 107 43C107 66.7482 126.252 86 150 86Z" fill="#0252B3"/>
</svg>
