<svg width="119" height="119" viewBox="0 0 119 119" fill="none" xmlns="http://www.w3.org/2000/svg">
<g clip-path="url(#clip0)">
<path d="M59.4012 52.2072C43.9591 52.2606 31.5596 65.0086 31.5596 80.4508V117.597C31.5596 118.728 32.8326 119.393 33.7613 118.746L56.851 102.658C58.4429 101.549 60.5571 101.549 62.1489 102.658L85.2386 118.746C86.1673 119.393 87.4404 118.728 87.4404 117.597V80.1475C87.4406 64.6835 74.8777 52.1538 59.4012 52.2072V52.2072Z" fill="url(#paint0_linear)"/>
<path d="M87.4407 117.596V80.1475C87.4407 64.6833 74.8778 52.1535 59.4015 52.2072C46.1295 52.2532 35.105 61.6766 32.2686 74.1282L32.3463 74.4744L59.7064 101.835C60.5635 101.873 61.4126 102.145 62.1494 102.659L85.2394 118.746C86.1676 119.393 87.4407 118.729 87.4407 117.596V117.596Z" fill="url(#paint1_linear)"/>
<path d="M43.4463 57.3506V111.998L37.4951 116.144V63.0743C39.188 60.8882 41.1916 58.9559 43.4416 57.3555L43.4463 57.3506Z" fill="url(#paint2_linear)"/>
<path d="M81.5049 62.9297V116.144L75.5537 111.998V57.2795C77.8037 58.8611 79.8097 60.7674 81.5049 62.9297Z" fill="url(#paint3_linear)"/>
<path d="M59.5 52.2083V101.827C60.4266 101.827 61.3529 102.104 62.1488 102.659L85.2385 118.746C86.1672 119.393 87.4403 118.729 87.4403 117.597V80.1476C87.4405 64.7166 74.931 52.2085 59.5 52.2083V52.2083Z" fill="url(#paint4_linear)"/>
<path d="M85.2386 114.217L62.1489 98.1296C60.5571 97.0206 58.4428 97.0206 56.851 98.1296L33.7613 114.217C32.8326 114.864 31.5596 114.2 31.5596 113.068V117.597C31.5596 118.729 32.8326 119.394 33.7613 118.746L56.851 102.659C58.4428 101.55 60.5571 101.55 62.1489 102.659L85.2386 118.746C86.1673 119.393 87.4404 118.729 87.4404 117.597V113.068C87.4404 114.2 86.1673 114.864 85.2386 114.217Z" fill="url(#paint5_linear)"/>
<path d="M43.4463 57.3496V85.5764L37.4951 79.6252V63.0733C37.6137 62.9216 37.7345 62.7697 37.8556 62.618C37.9837 62.4591 38.1165 62.2979 38.2492 62.1416C38.3582 62.0135 38.4674 61.8856 38.5764 61.7598C38.7992 61.5062 39.0246 61.2549 39.2568 61.0106C39.3399 60.9205 39.425 60.8328 39.5104 60.7451C39.7333 60.5103 39.9633 60.2826 40.1957 60.0574C40.4232 59.8369 40.6533 59.6188 40.8904 59.4078C40.9331 59.3675 40.9758 59.3297 41.0185 59.2916C41.1393 59.1827 41.2604 59.0758 41.3836 58.9715C41.5852 58.796 41.7892 58.6252 41.9954 58.457C42.0927 58.3765 42.1898 58.2981 42.2894 58.2199C42.3818 58.1464 42.4745 58.0753 42.5669 58.0041C42.7566 57.8571 42.9463 57.7148 43.1383 57.575C43.2379 57.4992 43.3399 57.428 43.4419 57.3545L43.4463 57.3496Z" fill="url(#paint6_linear)"/>
<path d="M81.5049 62.9297V116.144L75.5537 111.998V57.2795C77.8037 58.8611 79.8097 60.7674 81.5049 62.9297Z" fill="url(#paint7_linear)"/>
<path d="M101.23 37.3184C101.23 16.7081 82.5466 0 59.5001 0C36.4535 0 17.7705 16.7081 17.7705 37.3184V46.1407C17.7705 66.7511 36.4535 83.4591 59.5001 83.4591C82.5466 83.4591 101.23 66.7511 101.23 46.1407C101.23 46.1118 101.23 37.3473 101.23 37.3184Z" fill="url(#paint8_linear)"/>
<path d="M101.23 37.3184C101.23 16.7081 82.5466 0 59.5001 0C36.4535 0 17.7705 16.7081 17.7705 37.3184V46.1407C17.7705 66.7511 36.4535 83.4591 59.5001 83.4591C82.5466 83.4591 101.23 66.7511 101.23 46.1407C101.23 46.1118 101.23 37.3473 101.23 37.3184Z" fill="url(#paint9_linear)"/>
<path d="M93.8681 16.1506C86.3408 6.39497 73.7564 0 59.5 0C45.2435 0 32.6592 6.39497 25.1318 16.1506V67.3087C32.6592 77.0644 45.2435 83.4594 59.5 83.4594C73.7564 83.4594 86.3408 77.0644 93.8681 67.3087V16.1506Z" fill="url(#paint10_linear)"/>
<path d="M35.0244 76.366C41.9003 80.8269 50.3561 83.4591 59.5004 83.4591C68.6447 83.4591 77.1003 80.8267 83.9764 76.366V7.0931C77.1003 2.63247 68.6447 0 59.5004 0C50.3561 0 41.9005 2.63247 35.0244 7.0931V76.366Z" fill="url(#paint11_linear)"/>
<path d="M50.0195 82.4913C53.0655 83.1241 56.239 83.4591 59.5003 83.4591C62.7616 83.4591 65.9352 83.1241 68.9811 82.4913V0.967867C65.9352 0.335067 62.7616 0 59.5003 0C56.239 0 53.0655 0.335067 50.0195 0.967867V82.4913Z" fill="url(#paint12_linear)"/>
<path d="M59.5001 74.6368C82.5467 74.6368 101.23 57.9288 101.23 37.3184C101.23 16.708 82.5467 0 59.5001 0C36.4535 0 17.7705 16.708 17.7705 37.3184C17.7705 57.9288 36.4535 74.6368 59.5001 74.6368Z" fill="url(#paint13_linear)"/>
<path d="M59.4996 70.475C79.9759 70.475 96.5753 55.6303 96.5753 37.3185C96.5753 19.0068 79.9759 4.16211 59.4996 4.16211C39.0232 4.16211 22.4238 19.0068 22.4238 37.3185C22.4238 55.6303 39.0232 70.475 59.4996 70.475Z" fill="url(#paint14_linear)"/>
<path d="M59.4999 67.335C78.0369 67.335 93.0642 53.8962 93.0642 37.3187C93.0642 20.7412 78.0369 7.30249 59.4999 7.30249C40.9628 7.30249 25.9355 20.7412 25.9355 37.3187C25.9355 53.8962 40.9628 67.335 59.4999 67.335Z" fill="url(#paint15_linear)"/>
<path d="M100.529 44.1518L85.3859 29.0087C85.1309 28.4802 84.6339 28.064 83.9584 27.9676L76.9101 26.9426L61.2009 11.2719V11.2716C60.8568 10.563 60.1782 10.2051 59.4999 10.2051C58.8216 10.2051 58.1431 10.5628 57.7989 11.2716L50.7992 25.676L35.0415 27.9676C34.2619 28.0789 33.7185 28.6156 33.5127 29.2603C33.3034 29.9082 33.435 30.6642 34.0055 31.2077L45.1726 42.344C45.1966 42.3759 45.2232 42.4067 45.2498 42.438L42.6691 57.4922C42.5375 58.2515 42.8649 58.9265 43.3981 59.3248L58.7015 74.628C58.9672 74.6324 59.2332 74.6371 59.5002 74.6371C79.9362 74.6366 96.9392 61.4983 100.529 44.1518V44.1518Z" fill="url(#paint16_linear)"/>
<path d="M85.4872 29.26C85.2814 28.6153 84.738 28.0786 83.9584 27.9673L68.2007 25.6758L61.2009 11.2714C60.8568 10.5628 60.1782 10.2048 59.4999 10.2048C58.8216 10.2048 58.1431 10.5625 57.7989 11.2714L50.7992 25.6758L35.0415 27.9673C34.2619 28.0786 33.7185 28.6153 33.5127 29.26C33.3034 29.908 33.435 30.664 34.0055 31.2074L45.3252 41.9972L42.6691 57.4917C42.5375 58.2512 42.8649 58.926 43.3981 59.3243C43.9347 59.7259 44.6807 59.8507 45.3758 59.5031L59.4999 52.4629L73.6243 59.5031C74.3196 59.8507 75.0654 59.7259 75.602 59.3243C76.1352 58.926 76.4626 58.251 76.331 57.4917L73.6749 41.9972L84.9946 31.2074C85.5649 30.664 85.6965 29.908 85.4872 29.26V29.26ZM59.4999 37.5018L59.4764 37.5086L59.4864 37.4985L59.4999 37.4782L59.5135 37.4985L59.5235 37.5086L59.4999 37.5018Z" fill="url(#paint17_linear)"/>
<path d="M59.4863 37.4985L59.4763 37.5086L45.3251 41.9972L34.0054 31.2074C33.4352 30.664 33.3033 29.908 33.5126 29.26L59.4863 37.4985Z" fill="url(#paint18_linear)"/>
<path d="M59.4762 37.5088L43.3977 59.3248C42.8645 58.9265 42.5371 58.2514 42.6687 57.4922L45.3248 41.9977L59.4762 37.5088Z" fill="url(#paint19_linear)"/>
<path d="M75.6021 59.3247C75.0654 59.7263 74.3197 59.8511 73.6244 59.5034L59.5 52.4633V37.502L59.5236 37.5087L75.6021 59.3247Z" fill="url(#paint20_linear)"/>
<path d="M59.4996 37.502V52.4633L45.3752 59.5034C44.6799 59.8511 43.9341 59.7263 43.3975 59.3247L59.476 37.5087L59.4996 37.502Z" fill="url(#paint21_linear)"/>
<path d="M75.602 59.3245L59.5234 37.5085L73.6746 41.9972L76.3307 57.4917C76.4625 58.2514 76.1351 58.9264 75.602 59.3245V59.3245Z" fill="url(#paint22_linear)"/>
<path d="M59.5 37.4783L59.4864 37.4986L33.5127 29.2603C33.7185 28.6156 34.2619 28.0789 35.0415 27.9676L50.7992 25.676L59.5 37.4783Z" fill="url(#paint23_linear)"/>
<path d="M68.2008 25.6758L59.5 37.4782V10.2048C60.1783 10.2048 60.8568 10.5625 61.201 11.2714L68.2008 25.6758Z" fill="url(#paint24_linear)"/>
<path d="M59.5006 10.2048V37.478L50.7998 25.6758L57.7996 11.2714C58.1437 10.5625 58.8223 10.2048 59.5006 10.2048V10.2048Z" fill="url(#paint25_linear)"/>
<path d="M85.4873 29.26L59.5135 37.4983L59.5 37.4783L68.2008 25.676L83.9585 27.9676C84.738 28.0789 85.2815 28.6153 85.4873 29.26V29.26Z" fill="url(#paint26_linear)"/>
<path d="M84.9946 31.2077L73.6749 41.9975L59.5237 37.5088L59.5137 37.4988L85.4874 29.2605C85.6965 29.9082 85.5649 30.6642 84.9946 31.2077Z" fill="url(#paint27_linear)"/>
<path d="M81.086 30.2247C80.915 29.6892 80.4637 29.2435 79.816 29.1509L66.7269 27.2473L60.9127 15.2825C60.6266 14.6938 60.0634 14.3965 59.4999 14.3965C58.9364 14.3965 58.3729 14.6938 58.087 15.2825L52.2728 27.2473L39.1838 29.1509C38.536 29.2435 38.0848 29.6892 37.9137 30.2247C37.7399 30.763 37.8493 31.3909 38.323 31.8421L47.7256 40.8045L45.5195 53.6749C45.41 54.3056 45.6821 54.8663 46.125 55.1972C46.5706 55.5308 47.1904 55.6344 47.7679 55.3458L59.4999 49.498L71.2321 55.3458C71.8096 55.6347 72.4291 55.5308 72.875 55.1972C73.3179 54.8663 73.5899 54.3056 73.4805 53.6749L71.2743 40.8045L80.677 31.8421C81.1504 31.3909 81.2598 30.763 81.086 30.2247V30.2247ZM59.4999 37.0704L59.4803 37.076L59.4887 37.0676L59.4999 37.0508L59.5111 37.0676L59.5195 37.076L59.4999 37.0704Z" fill="url(#paint28_linear)"/>
<path d="M59.5003 64.1527C76.0723 64.1527 89.5065 52.1386 89.5065 37.3184C89.5065 22.4982 76.0723 10.4841 59.5003 10.4841C42.9284 10.4841 29.4941 22.4982 29.4941 37.3184C29.4941 52.1386 42.9284 64.1527 59.5003 64.1527Z" fill="url(#paint29_linear)"/>
</g>
<defs>
<linearGradient id="paint0_linear" x1="43.8593" y1="74.0159" x2="87.4168" y2="130.676" gradientUnits="userSpaceOnUse">
<stop stop-color="#4A98F7"/>
<stop offset="1" stop-color="#0469BC"/>
</linearGradient>
<linearGradient id="paint1_linear" x1="61.5635" y1="100.734" x2="59.6173" y2="73.2905" gradientUnits="userSpaceOnUse">
<stop stop-color="#0469BC" stop-opacity="0"/>
<stop offset="1" stop-color="#0469BC"/>
</linearGradient>
<linearGradient id="paint2_linear" x1="32.1009" y1="75.86" x2="57.2242" y2="108.541" gradientUnits="userSpaceOnUse">
<stop stop-color="#F9F7FC"/>
<stop offset="1" stop-color="#F0DDFC"/>
</linearGradient>
<linearGradient id="paint3_linear" x1="68.3402" y1="74.2093" x2="97.4938" y2="112.133" gradientUnits="userSpaceOnUse">
<stop stop-color="#F9F7FC"/>
<stop offset="1" stop-color="#F0DDFC"/>
</linearGradient>
<linearGradient id="paint4_linear" x1="71.0701" y1="82.1251" x2="23.9799" y2="47.9042" gradientUnits="userSpaceOnUse">
<stop stop-color="#18CFFC" stop-opacity="0"/>
<stop offset="1" stop-color="#65E1DC"/>
</linearGradient>
<linearGradient id="paint5_linear" x1="59.4998" y1="113.46" x2="59.4998" y2="73.5874" gradientUnits="userSpaceOnUse">
<stop stop-color="#0469BC" stop-opacity="0"/>
<stop offset="1" stop-color="#0469BC"/>
</linearGradient>
<linearGradient id="paint6_linear" x1="40.4706" y1="101.128" x2="40.4706" y2="71.7206" gradientUnits="userSpaceOnUse">
<stop stop-color="#F0DDFC" stop-opacity="0"/>
<stop offset="0.2889" stop-color="#C8B7E0" stop-opacity="0.289"/>
<stop offset="0.5915" stop-color="#A595C8" stop-opacity="0.592"/>
<stop offset="0.8395" stop-color="#8F81B8" stop-opacity="0.84"/>
<stop offset="1" stop-color="#8779B3"/>
</linearGradient>
<linearGradient id="paint7_linear" x1="78.5294" y1="101.128" x2="78.5294" y2="71.7205" gradientUnits="userSpaceOnUse">
<stop stop-color="#F0DDFC" stop-opacity="0"/>
<stop offset="0.2889" stop-color="#C8B7E0" stop-opacity="0.289"/>
<stop offset="0.5915" stop-color="#A595C8" stop-opacity="0.592"/>
<stop offset="0.8395" stop-color="#8F81B8" stop-opacity="0.84"/>
<stop offset="1" stop-color="#8779B3"/>
</linearGradient>
<linearGradient id="paint8_linear" x1="17.7705" y1="41.7296" x2="101.23" y2="41.7296" gradientUnits="userSpaceOnUse">
<stop stop-color="#FFDA45"/>
<stop offset="1" stop-color="#FFA425"/>
</linearGradient>
<linearGradient id="paint9_linear" x1="78.2155" y1="47.7967" x2="107.999" y2="57.4518" gradientUnits="userSpaceOnUse">
<stop stop-color="#FFDA45" stop-opacity="0"/>
<stop offset="0.5194" stop-color="#D9874F" stop-opacity="0.519"/>
<stop offset="1" stop-color="#B53759"/>
</linearGradient>
<linearGradient id="paint10_linear" x1="55.5277" y1="34.0907" x2="89.827" y2="100.051" gradientUnits="userSpaceOnUse">
<stop stop-color="#FFDA45" stop-opacity="0"/>
<stop offset="0.5194" stop-color="#D9874F" stop-opacity="0.519"/>
<stop offset="1" stop-color="#B53759"/>
</linearGradient>
<linearGradient id="paint11_linear" x1="58.2166" y1="54.7519" x2="54.1655" y2="95.8421" gradientUnits="userSpaceOnUse">
<stop stop-color="#FFDA45" stop-opacity="0"/>
<stop offset="0.5194" stop-color="#D9874F" stop-opacity="0.519"/>
<stop offset="1" stop-color="#B53759"/>
</linearGradient>
<linearGradient id="paint12_linear" x1="51.2352" y1="56.8461" x2="38.712" y2="79.7505" gradientUnits="userSpaceOnUse">
<stop stop-color="#FFDA45" stop-opacity="0"/>
<stop offset="0.5194" stop-color="#D9874F" stop-opacity="0.519"/>
<stop offset="1" stop-color="#B53759"/>
</linearGradient>
<linearGradient id="paint13_linear" x1="17.7705" y1="37.3184" x2="101.23" y2="37.3184" gradientUnits="userSpaceOnUse">
<stop stop-color="#FFDA45"/>
<stop offset="1" stop-color="#FFA425"/>
</linearGradient>
<linearGradient id="paint14_linear" x1="96.5753" y1="37.3185" x2="22.4241" y2="37.3185" gradientUnits="userSpaceOnUse">
<stop stop-color="#FFDA45"/>
<stop offset="1" stop-color="#FFA425"/>
</linearGradient>
<linearGradient id="paint15_linear" x1="25.9355" y1="37.3187" x2="93.0642" y2="37.3187" gradientUnits="userSpaceOnUse">
<stop stop-color="#FFDA45"/>
<stop offset="1" stop-color="#FFA425"/>
</linearGradient>
<linearGradient id="paint16_linear" x1="104.082" y1="79.226" x2="20.148" y2="7.14775" gradientUnits="userSpaceOnUse">
<stop stop-color="#FFDA45" stop-opacity="0"/>
<stop offset="0.5194" stop-color="#D9874F" stop-opacity="0.519"/>
<stop offset="1" stop-color="#B53759"/>
</linearGradient>
<linearGradient id="paint17_linear" x1="49.3628" y1="28.5441" x2="88.878" y2="69.4834" gradientUnits="userSpaceOnUse">
<stop stop-color="#FFDA45"/>
<stop offset="1" stop-color="#FCB37E"/>
</linearGradient>
<linearGradient id="paint18_linear" x1="43.3114" y1="30.6922" x2="67.8887" y2="56.9079" gradientUnits="userSpaceOnUse">
<stop stop-color="#FCB37E" stop-opacity="0"/>
<stop offset="1" stop-color="#FF7044"/>
</linearGradient>
<linearGradient id="paint19_linear" x1="42.6396" y1="48.4167" x2="59.4762" y2="48.4167" gradientUnits="userSpaceOnUse">
<stop stop-color="#FFDA45"/>
<stop offset="1" stop-color="#FCB37E"/>
</linearGradient>
<linearGradient id="paint20_linear" x1="55.4832" y1="40.4476" x2="84.2476" y2="72.8529" gradientUnits="userSpaceOnUse">
<stop stop-color="#FCB37E" stop-opacity="0"/>
<stop offset="1" stop-color="#FF7044"/>
</linearGradient>
<linearGradient id="paint21_linear" x1="39.0089" y1="49.0531" x2="75.9657" y2="47.7787" gradientUnits="userSpaceOnUse">
<stop stop-color="#FCB37E" stop-opacity="0"/>
<stop offset="1" stop-color="#FF7044"/>
</linearGradient>
<linearGradient id="paint22_linear" x1="72.0439" y1="63.9401" x2="62.5771" y2="21.8859" gradientUnits="userSpaceOnUse">
<stop stop-color="#FFDA45"/>
<stop offset="1" stop-color="#FCB37E"/>
</linearGradient>
<linearGradient id="paint23_linear" x1="45.258" y1="27.973" x2="50.9016" y2="52.3682" gradientUnits="userSpaceOnUse">
<stop stop-color="#FFDA45"/>
<stop offset="1" stop-color="#FCB37E"/>
</linearGradient>
<linearGradient id="paint24_linear" x1="69.2886" y1="27.6435" x2="34.3343" y2="13.8075" gradientUnits="userSpaceOnUse">
<stop stop-color="#FCB37E" stop-opacity="0"/>
<stop offset="1" stop-color="#FF7044"/>
</linearGradient>
<linearGradient id="paint25_linear" x1="54.1134" y1="16.1702" x2="72.1365" y2="46.9371" gradientUnits="userSpaceOnUse">
<stop stop-color="#FCB37E" stop-opacity="0"/>
<stop offset="1" stop-color="#FF7044"/>
</linearGradient>
<linearGradient id="paint26_linear" x1="76.4717" y1="27.7977" x2="42.9739" y2="57.4723" gradientUnits="userSpaceOnUse">
<stop stop-color="#FCB37E" stop-opacity="0"/>
<stop offset="1" stop-color="#FF7044"/>
</linearGradient>
<linearGradient id="paint27_linear" x1="70.4516" y1="39.858" x2="82.1031" y2="6.36025" gradientUnits="userSpaceOnUse">
<stop stop-color="#FCB37E" stop-opacity="0"/>
<stop offset="1" stop-color="#FF7044"/>
</linearGradient>
<linearGradient id="paint28_linear" x1="60.184" y1="37.7805" x2="48.8634" y2="21.4282" gradientUnits="userSpaceOnUse">
<stop stop-color="#FFDA45" stop-opacity="0"/>
<stop offset="1" stop-color="#FFEE83"/>
</linearGradient>
<linearGradient id="paint29_linear" x1="57.4428" y1="34.4643" x2="35.3923" y2="3.87847" gradientUnits="userSpaceOnUse">
<stop stop-color="#FFDA45" stop-opacity="0"/>
<stop offset="1" stop-color="#FCEE21"/>
</linearGradient>
<clipPath id="clip0">
<rect width="119" height="119" fill="white"/>
</clipPath>
</defs>
</svg>
