<svg width="1280" height="345" viewBox="0 0 1280 345" fill="none" xmlns="http://www.w3.org/2000/svg">
<rect width="1280" height="345" rx="15" fill="#FFC61A"/>
<mask id="mask0" mask-type="alpha" maskUnits="userSpaceOnUse" x="0" y="0" width="1280" height="345">
<rect width="1280" height="345" rx="15" fill="#FFC61A"/>
</mask>
<g mask="url(#mask0)">
<path d="M1183 109.681C1211.11 109.706 1238.59 118.064 1261.95 133.698C1285.31 149.331 1303.52 171.54 1314.26 197.517C1325.01 223.494 1327.82 252.073 1322.33 279.644C1316.83 307.214 1303.29 332.539 1283.42 352.417C1263.54 372.295 1238.21 385.835 1210.64 391.325C1183.07 396.816 1154.49 394.011 1128.52 383.264C1102.54 372.518 1080.33 354.313 1064.7 330.949C1049.06 307.585 1040.71 280.112 1040.68 252C1040.7 214.26 1055.7 178.07 1082.38 151.384C1109.07 124.697 1145.26 109.698 1183 109.681V109.681ZM1183 -61C1121.09 -61 1060.58 -42.6429 1009.11 -8.24999C957.634 26.1429 917.516 75.0268 893.826 132.22C870.136 189.413 863.937 252.347 876.014 313.063C888.092 373.779 917.902 429.551 961.676 473.324C1005.45 517.098 1061.22 546.909 1121.94 558.986C1182.65 571.063 1245.59 564.864 1302.78 541.174C1359.97 517.484 1408.86 477.366 1443.25 425.893C1477.64 374.421 1496 313.906 1496 252C1496 168.987 1463.02 89.3744 1404.32 30.6756C1345.63 -28.0233 1266.01 -61 1183 -61V-61Z" fill="#F5B800"/>
</g>
</svg>
