<svg width="100" height="100" viewBox="0 0 100 100" fill="none" xmlns="http://www.w3.org/2000/svg">
<g clip-path="url(#clip0)">
<path d="M0 43.0837C0 64.3253 17.6208 82.2003 41.6542 85.5462C43.2667 85.9003 43.625 86.267 43.6333 86.267C43.9292 86.9378 43.175 90.1462 42.85 93.2378C42.0292 98.717 45.5208 101.579 51.3167 99.0337C56.8 96.6295 79.2042 81.7795 89.2833 69.6128C100.346 56.8795 103.017 41.517 96.6125 27.4587C76.3625 -16.9497 0 -4.14551 0 43.0837H0ZM84.5167 65.567C75.3417 76.642 54.7167 90.5045 49.15 93.1503C49.8667 87.4003 51.9792 81.417 42.7583 79.3962C21.6042 76.4462 6.25 61.1753 6.25 43.0837C6.25 2.58782 73.45 -8.29552 90.9208 30.0503C96.2667 41.7837 93.9542 54.7087 84.5167 65.567V65.567Z" fill="#0252B3"/>
<path d="M31.6598 48.9124H26.6348V31.6582C26.6348 29.9332 25.2348 28.5332 23.5098 28.5332C21.7848 28.5332 20.3848 29.9332 20.3848 31.6582V52.0415C20.3848 53.7665 21.7848 55.1665 23.5098 55.1665H31.6598C35.7931 55.1624 35.7931 48.9124 31.6598 48.9124V48.9124Z" fill="#0252B3"/>
<path d="M36.6879 31.6582C37.6213 47.3582 34.3921 55.1665 39.8129 55.1665C41.5379 55.1665 42.9379 53.7665 42.9379 52.0415V31.6582C42.9379 27.5249 36.6879 27.5207 36.6879 31.6582Z" fill="#0252B3"/>
<path d="M76.4928 34.7832C80.6262 34.7832 80.6303 28.5332 76.4928 28.5332H68.3428C66.6178 28.5332 65.2178 29.9332 65.2178 31.6582V52.0415C65.2178 53.7665 66.6178 55.1665 68.3428 55.1665H76.4928C80.6262 55.1665 80.6303 48.9165 76.4928 48.9165H71.4678V44.9749H76.4928C80.6262 44.9749 80.6303 38.7249 76.4928 38.7249H71.4678V34.7832H76.4928Z" fill="#0252B3"/>
<path d="M57.0622 31.6585V40.7585L50.6413 30.0544C49.008 27.3377 44.833 28.5085 44.833 31.6627V52.046C44.833 53.771 46.233 55.171 47.958 55.171C49.683 55.171 51.083 53.771 51.083 52.046V42.946L57.5038 53.6502C58.083 54.6085 59.108 55.1668 60.1872 55.1668C60.4622 55.1668 60.7455 55.1293 61.0205 55.0543C62.3747 54.6793 63.3121 53.446 63.3121 52.0418V31.6585C63.3121 27.5252 57.0622 27.521 57.0622 31.6585V31.6585Z" fill="#0252B3"/>
</g>
<defs>
<clipPath id="clip0">
<rect width="100" height="100" fill="white"/>
</clipPath>
</defs>
</svg>
