<?xml version="1.0" encoding="utf-8"?>
<!-- Generator: Adobe Illustrator 15.1.0, SVG Export Plug-In . SVG Version: 6.00 Build 0)  -->
<!DOCTYPE svg PUBLIC "-//W3C//DTD SVG 1.1//EN" "http://www.w3.org/Graphics/SVG/1.1/DTD/svg11.dtd" [
	<!ENTITY st0 "fill:#FE0000;">
	<!ENTITY st1 "fill:#FECE00;">
	<!ENTITY st2 "fill:#FFCC00;">
]>
<svg version="1.1" id="Layer_1" xmlns="http://www.w3.org/2000/svg" xmlns:xlink="http://www.w3.org/1999/xlink" x="0px" y="0px"
	 width="600px" height="261.667px" viewBox="0 0 600 261.667" style="enable-background:new 0 0 600 261.667;" xml:space="preserve"
	>
<g id="XMLID_1_">
	<g>
		<path style="&st0;" d="M246.12,40.586c11.3,18.08,15.55,41.75,0,67.2c-2.34,2.68-2.43,2.71-3.601,4.08
			c-2.069,2.42-4.439,4.78-7.069,6.97c-0.41-2.16-1.58-4.77-0.45-6.01l-37.33,18.96c0.13,0.04,0.62,0.39,1.39,0.979
			c-3.829,0.04-8.079-0.3-13.18-0.979c-12.07-1.771-20.39-7.29-28.32-13.2c-8.26-8.06-10.029-10.59-13.68-17.52
			c-1.12-2.12-2.71-4.56-2.64-7.2c10.24,7.04,20.59,13.97,37.92,13.92c20.51-0.95,30.6-13.92,32.399-29.28
			c1.051-8.97-1.369-14.98-4.56-20.4c-3.9-6.63-9.17-11.76-14.88-16.08c-5.03-3.81-12.96-8.36-12.72-12.24
			c2.84-4.95,11.35-1.93,16.08-0.72c2.5,1.18,9.52,4.43,13.92,8.16c2.189-2.6,12.43-13.06,14.399-14.88c0,0,5.12,2.69,6.48,3.6
			c4.47,3,7.819,5.64,11.04,9.12C242.98,36.867,244.21,38.716,246.12,40.586z"/>
		<path style="&st2;" d="M235.56,119.546c0.271,2.64,0.24,6.93,0.24,10.08c0,7.41-0.79,14.2-1.92,20.16
			c-0.62,3.27-1.149,6.49-2.64,9.12c-2.94-2.05-26.16-21.5-32.181-26.141c3.53-0.01,6.7-0.33,9.86-0.979
			c10.28-2.09,19.37-6.96,26.53-12.95C235.5,119.077,235.54,119.316,235.56,119.546z"/>
		<path style="&st0;" d="M197.67,131.787l37.33-18.96c-1.13,1.24,0.04,3.85,0.45,6.01c-7.16,5.99-16.25,10.86-26.53,12.95
			c-3.16,0.649-6.33,0.97-9.86,0.979C198.29,132.176,197.8,131.827,197.67,131.787z"/>
		<path style="&st2;" d="M227.4,169.707c-2.851,9.13-7.841,17.28-13.44,24.479c-16.479,21.19-33.46,36.48-69.49,43.841
			c-7.489,1.08-18.59,3.02-34.09,1.08c-17.12-2.141-39.73-10.66-53.62-21.16c-2.11-1.601-4.07-2.92-6-5.521
			c12.33-3.35,22.16-5.399,32.88-8.64c8.45-18.03,33.59-71.51,34.56-71.521c0.79,0,51.55,46.75,53.76,47.04
			C173.63,179.527,222.57,169.747,227.4,169.707z"/>
		<path style="&st0;" d="M168.36,56.667c2.109,2.43,3.479,7.68,1.199,12c-2.39,2.72-7.97,3.62-12.72,1.92
			c-2.88-1.03-6.16-3.85-9.12-6.72c-2.68-2.59-7.2-7.45-7.2-8.4c0-0.97,4.711-10.82,6-12.96
			C152.1,46.796,163.36,50.907,168.36,56.667z"/>
		<path style="&st1;" d="M121.08,16.827c-7.62,15.49-18.29,34.83-19.2,35.76c-2.96-2.59-22.18-17.42-29.04-23.76
			C85.58,21.637,102.32,17.187,121.08,16.827z"/>
		<path style="&st2;" d="M78.12,96.506c-15.03,25.98-46.78,85.9-49.64,90.24c-2.44-3.24-4.32-7.09-6.48-10.561
			c-22.83-47.35-3.19-91.24,2.6-101.52c3.84-6.83,4.29-7.25,7.2-11.28c0.93-1.28,3.85-4.93,4.32-5.04
			C37.06,58.117,72.17,91.247,78.12,96.506z"/>
	</g>
	<g>
	</g>
</g>
<g>
	<path style="&st0;" d="M256.1,177.042v-36.832c0,0,0,0,0-0.097v-19.091c0-2.797,2.314-5.11,5.11-5.11
		c2.7,0,4.918,1.832,5.304,3.953c3.567-2.314,8.195-3.953,13.112-3.953c12.824,0,23.334,10.992,23.334,24.201
		c0,13.21-10.51,23.912-23.334,23.912c-4.82,0-9.448-1.446-12.92-3.953v16.97c0,2.7-2.41,5.207-5.496,5.207
		C258.414,182.249,256.1,179.742,256.1,177.042z M266.706,140.113c0,3.761,1.254,7.425,3.761,9.643
		c2.41,2.699,5.592,4.049,9.159,4.049c3.278,0,6.557-1.35,9.064-4.049c2.217-2.218,3.76-5.882,3.76-9.643s-1.543-7.231-3.76-9.738
		c-2.508-2.604-5.786-3.953-9.064-3.953c-3.567,0-6.749,1.35-9.159,3.953C267.96,132.881,266.706,136.352,266.706,140.113z"/>
	<path style="&st0;" d="M349.432,121.022c0,2.699-2.217,5.11-5.109,5.11c-2.218,0-4.146,0.578-5.786,1.832
		c-1.831,1.156-3.277,2.796-4.435,4.628c-2.314,3.085-3.472,6.749-3.953,8.1v18.319c0,2.796-2.411,5.11-5.304,5.11
		c-2.796,0-5.11-2.314-5.11-5.11v-37.989c0-2.797,2.314-5.014,5.11-5.014c2.893,0,5.304,2.217,5.304,5.014v0.675
		c0.578-0.675,1.35-1.446,2.024-1.929c3.182-2.121,7.328-3.856,12.149-3.76C347.215,116.008,349.432,118.225,349.432,121.022z"/>
	<path style="&st0;" d="M364.087,157.083c-4.146-4.242-6.653-10.22-6.653-16.97c0-6.557,2.507-12.245,6.653-16.873
		c4.339-4.532,9.932-7.328,16.584-7.328c6.364,0,12.149,2.796,16.103,7.328c4.339,4.628,6.749,10.316,6.749,16.873
		c0,6.75-2.41,12.728-6.749,16.97c-3.953,4.532-9.738,7.328-16.103,7.328C374.019,164.411,368.426,161.615,364.087,157.083z
		 M367.943,140.113c0,4.146,1.254,7.521,3.472,10.221c2.41,2.314,5.592,3.567,9.256,3.567c3.375,0,6.461-1.253,8.871-3.567
		c2.41-2.7,3.761-6.074,3.761-10.221c0-3.953-1.351-7.424-3.761-10.027c-2.41-2.121-5.496-3.664-8.871-3.664
		c-3.664,0-6.846,1.543-9.256,3.664C369.197,132.689,367.943,136.16,367.943,140.113z"/>
	<path style="&st0;" d="M410.463,175.885c0-2.797,2.218-5.11,5.304-5.11v-49.561c0-2.989,2.41-5.303,5.206-5.303
		c2.989,0,5.207,2.313,5.207,5.303v49.561c0,5.688-4.628,10.413-10.413,10.413C412.681,181.188,410.463,178.97,410.463,175.885z
		 M415.862,103.956v-1.929c0-3.085,2.411-5.303,5.304-5.303s5.206,2.218,5.206,5.303v1.929c0,2.796-2.313,5.303-5.206,5.303
		S415.862,106.751,415.862,103.956z"/>
	<path style="&st0;" d="M440.545,140.016c0.096-13.112,10.316-24.104,23.526-24.104c12.534,0,22.466,9.353,23.237,22.369
		c0,0.097,0,0.289,0,0.482c0,0.192,0,0.675-0.097,0.867c-0.289,2.314-2.314,3.857-5.014,3.857h-30.662
		c0.482,2.218,1.543,4.725,3.278,6.363c2.025,2.314,5.882,4.05,9.257,4.339c3.471,0.29,7.617-0.578,10.027-2.41
		c2.025-2.121,5.979-1.832,7.231-0.289c1.254,1.35,2.218,4.242,0,6.268c-4.725,4.339-10.413,6.363-17.259,6.363
		C450.861,164.025,440.641,153.129,440.545,140.016z M451.055,135.292h27.286c-0.964-3.856-5.881-9.545-14.27-10.22
		C455.875,125.458,451.826,131.338,451.055,135.292z"/>
	<path style="&st0;" d="M499.263,140.113c0-13.402,11.185-24.104,24.49-24.201c5.785,0,11.185,2.121,15.331,5.303
		c2.218,1.735,2.604,5.014,1.061,7.136c-1.929,2.313-5.014,2.699-7.231,0.964c-2.507-1.832-5.593-3.086-9.16-3.086
		c-7.81,0-14.271,6.461-14.271,13.885c0,7.425,6.461,13.788,14.271,13.788c3.472,0,6.653-1.253,9.16-3.085
		c2.121-1.64,5.303-1.254,7.231,1.061c1.543,2.121,1.157,5.206-1.061,7.135c-4.146,2.989-9.546,5.11-15.331,5.11
		C510.447,164.122,499.263,153.323,499.263,140.113z"/>
	<path style="&st0;" d="M579.387,121.214c0,2.893-2.508,5.304-5.4,5.304h-2.41v26.9c2.989,0,5.303,2.411,5.303,5.4
		c0,2.988-2.313,5.303-5.303,5.303c-5.882,0-10.702-4.821-10.702-10.703v-26.9h-2.797c-2.989,0-5.303-2.411-5.303-5.304
		c0-2.989,2.313-5.303,5.303-5.303h2.797V101.93c0-2.988,2.41-5.303,5.399-5.303c2.988,0,5.303,2.314,5.303,5.303v13.981h2.41
		C576.879,115.912,579.387,118.225,579.387,121.214z"/>
</g>
</svg>
