<svg width="100" height="100" viewBox="0 0 100 100" fill="none" xmlns="http://www.w3.org/2000/svg">
<path d="M84.4043 57.8477C80.1878 53.6311 73.3265 53.6311 69.11 57.8477L64.4983 62.4593C53.0471 56.2196 43.7805 46.953 37.5393 35.5018L42.151 30.8901C46.369 26.6736 46.369 19.8123 42.151 15.5958L29.7234 3.16826C25.5069 -1.04827 18.6457 -1.04827 14.4291 3.16826L4.48768 13.1097C-1.20695 18.8043 -1.49103 28.5944 3.68735 40.6773C8.18364 51.1681 16.4119 62.6987 26.8567 73.1434C37.3014 83.5881 48.832 91.8164 59.3228 96.3127C65.0636 98.7729 70.2852 100 74.7974 100C79.7825 100 83.901 98.5018 86.8904 95.5124L96.8318 85.5695V85.571C98.8752 83.5276 100 80.8122 100 77.9238C100 75.0339 98.8752 72.3186 96.8318 70.2766L84.4043 57.8477ZM79.0514 87.6735C77.4262 89.2986 72.4281 89.8682 63.6908 86.1247C54.4646 82.1706 44.167 74.7758 34.6956 65.3045C25.2243 55.8331 17.8309 45.5369 13.8768 36.3107C10.1318 27.5734 10.7014 22.5738 12.3266 20.9487L22.0777 11.1976L34.1217 23.2429L28.3492 29.0169C25.7391 31.627 25.1089 35.5854 26.7831 38.8675C34.3726 53.7494 46.2507 65.6275 61.1326 73.217C64.4161 74.8912 68.3745 74.2625 70.9846 71.6509L76.7571 65.8784L88.8025 77.9238L79.0514 87.6735Z" fill="#0252B3"/>
</svg>
