<svg width="358" height="156" viewBox="0 0 358 156" fill="none" xmlns="http://www.w3.org/2000/svg">
<path d="M146.851 24.1965C153.594 34.9754 156.129 49.087 146.851 64.2597C145.455 65.8574 145.401 65.8753 144.703 66.6921C143.468 68.1348 142.054 69.5418 140.485 70.8474C140.24 69.5597 139.542 68.0037 140.216 67.2644L117.943 78.5679C118.02 78.5918 118.313 78.8005 118.772 79.1516C116.487 79.1755 113.952 78.9727 110.908 78.5679C103.706 77.5121 98.742 74.2218 94.0104 70.6984C89.0819 65.8932 88.0264 64.3849 85.848 60.2534C85.1798 58.9895 84.2311 57.5348 84.2728 55.9609C90.3827 60.158 96.5582 64.2895 106.898 64.2597C119.136 63.6933 125.156 55.9609 126.23 46.8036C126.857 41.4559 125.413 37.8729 123.509 34.6416C121.182 30.6889 118.038 27.6305 114.631 25.055C111.629 22.7836 106.898 20.071 107.041 17.7578C108.736 14.8067 113.813 16.6072 116.635 17.3286C118.127 18.0321 122.316 19.9696 124.941 22.1934C126.247 20.6433 132.358 14.4073 133.532 13.3223C133.532 13.3223 136.587 14.926 137.399 15.4685C140.066 17.257 142.064 18.8309 143.986 20.9056C144.978 21.9794 145.712 23.0817 146.851 24.1965Z" fill="#F6F6F6"/>
<path d="M140.55 71.2707C140.712 72.8446 140.694 75.4022 140.694 77.2802C140.694 81.6979 140.222 85.7459 139.548 89.2991C139.178 91.2486 138.862 93.1683 137.973 94.7363C136.219 93.5141 122.364 81.9184 118.771 79.1516C120.878 79.1456 122.769 78.9548 124.655 78.5679C130.788 77.3219 136.212 74.4185 140.484 70.8474C140.515 70.9911 140.538 71.1336 140.55 71.2707Z" fill="#F6F6F6"/>
<path d="M117.943 78.5687L140.217 67.2651C139.543 68.0044 140.241 69.5604 140.485 70.8482C136.213 74.4193 130.79 77.3226 124.656 78.5687C122.77 78.9556 120.879 79.1469 118.773 79.1523C118.313 78.8006 118.021 78.5925 117.943 78.5687Z" fill="#F6F6F6"/>
<path d="M135.682 101.176C133.981 106.619 131.004 111.478 127.663 115.769C117.831 128.402 107.699 137.518 86.2007 141.906C81.7323 142.55 75.1087 143.707 65.8604 142.55C55.6454 141.274 42.1548 136.195 33.8671 129.935C32.6081 128.981 31.4387 128.194 30.2871 126.644C37.644 124.647 43.5092 123.425 49.9055 121.493C54.9473 110.744 69.9475 78.8601 70.5263 78.8535C70.9977 78.8535 101.284 106.725 102.603 106.898C103.6 107.03 132.8 101.199 135.682 101.176Z" fill="#F6F6F6"/>
<path d="M100.455 33.7837C101.713 35.2324 102.53 38.3623 101.17 40.9378C99.7439 42.5594 96.4145 43.096 93.5804 42.0825C91.862 41.4684 89.9049 39.7872 88.1388 38.0762C86.5397 36.5321 83.8428 33.6346 83.8428 33.0683C83.8428 32.49 86.6537 26.6176 87.4228 25.3418C90.7528 27.8988 97.4712 30.3497 100.455 33.7837Z" fill="#F6F6F6"/>
<path d="M72.2441 10.032C67.6975 19.2668 61.3311 30.7969 60.7881 31.3513C59.022 29.8072 47.5541 20.9659 43.4609 17.1861C51.0625 12.8996 61.0507 10.2466 72.2441 10.032Z" fill="#F6F6F6"/>
<path d="M46.6114 57.5349C37.6435 73.0236 18.6993 108.747 16.9929 111.334C15.537 109.402 14.4153 107.107 13.1265 105.038C-0.495418 76.8087 11.2231 50.6425 14.6778 44.5138C16.969 40.4419 17.2375 40.1915 18.9738 37.7889C19.5287 37.0258 21.271 34.8497 21.5514 34.7841C22.1123 34.6482 43.0612 54.3996 46.6114 57.5349Z" fill="#F6F6F6"/>
<path d="M152.807 105.549V83.5902C152.807 83.5902 152.807 83.5902 152.807 83.5323V72.1507C152.807 70.4832 154.187 69.1042 155.856 69.1042C157.467 69.1042 158.79 70.1964 159.02 71.4609C161.149 70.0814 163.91 69.1042 166.844 69.1042C174.495 69.1042 180.766 75.6574 180.766 83.5323C180.766 91.4079 174.495 97.7881 166.844 97.7881C163.968 97.7881 161.207 96.9261 159.135 95.4315V105.549C159.135 107.158 157.697 108.653 155.856 108.653C154.187 108.653 152.807 107.158 152.807 105.549ZM159.135 83.5323C159.135 85.7746 159.883 87.959 161.379 89.2813C162.817 90.8904 164.716 91.6952 166.844 91.6952C168.8 91.6952 170.756 90.8904 172.252 89.2813C173.575 87.959 174.495 85.7746 174.495 83.5323C174.495 81.2901 173.575 79.2214 172.252 77.7268C170.756 76.1743 168.8 75.3701 166.844 75.3701C164.716 75.3701 162.817 76.1749 161.379 77.7268C159.883 79.2208 159.135 81.2901 159.135 83.5323Z" fill="#F6F6F6"/>
<path d="M208.495 72.1507C208.495 73.7598 207.172 75.1971 205.446 75.1971C204.123 75.1971 202.972 75.5417 201.994 76.2893C200.901 76.9785 200.039 77.9563 199.348 79.0485C197.967 80.8877 197.276 83.0721 196.989 83.8775V94.7989C196.989 96.4658 195.551 97.8453 193.824 97.8453C192.156 97.8453 190.775 96.4658 190.775 94.7989V72.1507C190.775 70.4832 192.156 69.1614 193.824 69.1614C195.551 69.1614 196.989 70.4832 196.989 72.1507V72.5531C197.334 72.1507 197.795 71.691 198.197 71.4031C200.095 70.1386 202.569 69.1042 205.446 69.1614C207.172 69.1614 208.495 70.4832 208.495 72.1507Z" fill="#F6F6F6"/>
<path d="M217.239 93.6495C214.765 91.1205 213.27 87.5565 213.27 83.5323C213.27 79.6232 214.765 76.2321 217.239 73.473C219.828 70.7712 223.165 69.1042 227.134 69.1042C230.931 69.1042 234.383 70.7712 236.742 73.473C239.331 76.2321 240.769 79.6232 240.769 83.5323C240.769 87.5565 239.331 91.1205 236.742 93.6495C234.384 96.3514 230.932 98.0183 227.134 98.0183C223.165 98.0183 219.828 96.3514 217.239 93.6495ZM219.54 83.5323C219.54 86.0041 220.288 88.0162 221.612 89.6259C223.05 91.0054 224.948 91.7524 227.134 91.7524C229.148 91.7524 230.989 91.0054 232.427 89.6259C233.865 88.0162 234.671 86.0047 234.671 83.5323C234.671 81.1757 233.865 79.1063 232.427 77.5545C230.989 76.29 229.148 75.3701 227.134 75.3701C224.948 75.3701 223.05 76.29 221.612 77.5545C220.288 79.1063 219.54 81.1757 219.54 83.5323Z" fill="#F6F6F6"/>
<path d="M244.91 104.859C244.91 103.191 246.234 101.812 248.075 101.812V72.2652C248.075 70.4832 249.513 69.1037 251.181 69.1037C252.965 69.1037 254.288 70.4826 254.288 72.2652V101.812C254.288 105.203 251.527 108.02 248.075 108.02C246.234 108.02 244.91 106.698 244.91 104.859ZM248.132 61.9764V60.8263C248.132 58.9871 249.57 57.6648 251.296 57.6648C253.022 57.6648 254.403 58.9871 254.403 60.8263V61.9764C254.403 63.6433 253.022 65.1379 251.296 65.1379C249.57 65.1379 248.132 63.6427 248.132 61.9764Z" fill="#F6F6F6"/>
<path d="M262.858 83.4745C262.916 75.6574 269.014 69.1042 276.896 69.1042C284.374 69.1042 290.3 74.6803 290.76 82.4401C290.76 82.498 290.76 82.6124 290.76 82.7275C290.76 82.842 290.76 83.1299 290.702 83.2444C290.53 84.6239 289.322 85.5438 287.711 85.5438H269.416C269.703 86.8662 270.336 88.3608 271.372 89.3373C272.58 90.7169 274.881 91.7518 276.895 91.9241C278.966 92.097 281.44 91.5796 282.878 90.4874C284.086 89.2229 286.445 89.3952 287.192 90.3151C287.94 91.1199 288.516 92.844 287.192 94.0519C284.373 96.6387 280.979 97.8454 276.894 97.8454C269.014 97.7881 262.916 91.2922 262.858 83.4745ZM269.129 80.6582H285.41C284.835 78.3593 281.901 74.9677 276.896 74.5652C272.005 74.7954 269.589 78.3009 269.129 80.6582Z" fill="#F6F6F6"/>
<path d="M297.894 83.5323C297.894 75.5424 304.567 69.1621 312.506 69.1042C315.958 69.1042 319.18 70.3687 321.653 72.2658C322.977 73.3001 323.207 75.255 322.286 76.5201C321.136 77.8991 319.295 78.1292 317.972 77.0948C316.476 76.0026 314.635 75.255 312.507 75.255C307.847 75.255 303.991 79.1069 303.991 83.5329C303.991 87.9596 307.847 91.753 312.507 91.753C314.578 91.753 316.476 91.006 317.972 89.9138C319.238 88.9361 321.136 89.1662 322.286 90.5464C323.207 91.8109 322.977 93.6501 321.653 94.8001C319.18 96.5821 315.958 97.8466 312.506 97.8466C304.567 97.846 297.894 91.4078 297.894 83.5323Z" fill="#F6F6F6"/>
<path d="M345.702 72.2652C345.702 73.9899 344.205 75.4273 342.48 75.4273H341.042V91.4645C342.825 91.4645 344.206 92.9018 344.206 94.6838C344.206 96.4652 342.826 97.8453 341.042 97.8453C337.532 97.8453 334.656 94.9712 334.656 91.4645V75.4273H332.987C331.204 75.4273 329.823 73.9899 329.823 72.2652C329.823 70.4832 331.203 69.1036 332.987 69.1036H334.656V60.7685C334.656 58.9871 336.094 57.6069 337.878 57.6069C339.66 57.6069 341.042 58.9865 341.042 60.7685V69.1036H342.48C344.205 69.1042 345.702 70.4832 345.702 72.2652Z" fill="#F6F6F6"/>
</svg>
