<svg width="214" height="214" viewBox="0 0 214 214" fill="none" xmlns="http://www.w3.org/2000/svg">
<path d="M107 58.3477C116.61 58.3564 126.002 61.2135 133.989 66.558C141.976 71.9025 148.2 79.4945 151.873 88.3748C155.547 97.2551 156.506 107.025 154.629 116.45C152.752 125.875 148.123 134.532 141.328 141.328C134.532 148.123 125.875 152.752 116.45 154.629C107.025 156.506 97.2551 155.547 88.3748 151.873C79.4946 148.199 71.9025 141.976 66.558 133.989C61.2135 126.002 58.3564 116.61 58.3478 107C58.3536 94.0984 63.4813 81.7269 72.6041 72.604C81.7269 63.4812 94.0984 58.3535 107 58.3477V58.3477ZM107 0C85.8374 0 65.1501 6.27544 47.554 18.0327C29.958 29.7901 16.2435 46.5012 8.14494 66.0529C0.0463614 85.6046 -2.0726 107.119 2.05602 127.875C6.18464 148.631 16.3754 167.696 31.3396 182.66C46.3038 197.625 65.3694 207.815 86.1254 211.944C106.881 216.073 128.395 213.954 147.947 205.855C167.499 197.757 184.21 184.042 195.967 166.446C207.725 148.85 214 128.163 214 107C214 78.6218 202.727 51.406 182.66 31.3396C162.594 11.2732 135.378 0 107 0V0Z" fill="url(#paint0_linear)"/>
<defs>
<linearGradient id="paint0_linear" x1="56.5572" y1="106.956" x2="186.093" y2="106.956" gradientUnits="userSpaceOnUse">
<stop stop-color="#FFC61A"/>
<stop offset="1" stop-color="#FFC61A" stop-opacity="0"/>
</linearGradient>
</defs>
</svg>
