<svg width="32" height="32" viewBox="0 0 32 32" fill="none" xmlns="http://www.w3.org/2000/svg">
<path d="M21.902 1.30836H20.9815V3.84156H20.6058V1.30836H19.6873V1H21.902V1.30836Z" fill="#0252B3"/>
<path d="M24.5278 3.84156H24.1482V2.52812H22.7045V3.84156H22.3268V1H22.7045V2.22172H24.1482V1H24.5278V3.84156Z" fill="#0252B3"/>
<path d="M16.3146 2.75967L7.62648 7.73796V17.6919L16.3146 22.6676L22.4194 19.1706V23.2654L16.1973 27.9474L8.2423 23.6146L7 25.8683L16.4212 31L25 24.5457V7.73796L16.3146 2.75967ZM22.0729 16.0122L16.3146 19.3134L13.3981 20.9984V17.6443L10.5536 16.0148V9.41503L16.3119 6.11645L22.0729 9.41503V16.0122Z" fill="#0252B3"/>
</svg>
