<svg width="152" height="60" viewBox="0 0 152 60" fill="none" xmlns="http://www.w3.org/2000/svg">
<path d="M29.8275 0.688652H27.9851V5.74892H27.2331V0.688652H25.3946V0.0726863H29.8275V0.688652Z" fill="#0252B3"/>
<path d="M35.0832 5.74892H34.3233V3.12522H31.4337V5.74892H30.6778V0.0726863H31.4337V2.51316H34.3233V0.0726863H35.0832V5.74892Z" fill="#0252B3"/>
<path d="M48.5529 3.22407C47.9047 3.03954 47.4322 2.81343 47.1357 2.54573C46.8417 2.27543 46.6947 1.94276 46.6947 1.54771C46.6947 1.10068 46.8745 0.731621 47.2341 0.440532C47.5963 0.146844 48.0661 0 48.6435 0C49.0372 0 49.3875 0.0753713 49.6946 0.226114C50.0043 0.376857 50.2431 0.584777 50.4111 0.849876C50.5817 1.11498 50.667 1.40477 50.667 1.71925H49.9072C49.9072 1.37618 49.797 1.10718 49.5765 0.912253C49.356 0.714728 49.045 0.615965 48.6435 0.615965C48.2708 0.615965 47.9795 0.697834 47.7695 0.861572C47.5622 1.02271 47.4585 1.24752 47.4585 1.53602C47.4585 1.76733 47.5569 1.96355 47.7537 2.12469C47.9532 2.28323 48.2905 2.42878 48.7655 2.56132C49.2432 2.69387 49.6159 2.84072 49.8836 3.00186C50.1539 3.1604 50.3534 3.34623 50.482 3.55934C50.6132 3.77246 50.6788 4.02327 50.6788 4.31176C50.6788 4.77178 50.4977 5.14084 50.1355 5.41894C49.7733 5.69443 49.2891 5.83218 48.6828 5.83218C48.2892 5.83218 47.9217 5.75811 47.5805 5.60996C47.2393 5.45922 46.9756 5.2539 46.7892 4.994C46.6055 4.7341 46.5136 4.43911 46.5136 4.10904H47.2735C47.2735 4.4521 47.4007 4.7237 47.6553 4.92383C47.9125 5.12135 48.255 5.22011 48.6828 5.22011C49.0818 5.22011 49.3875 5.13954 49.6001 4.9784C49.8127 4.81727 49.919 4.59765 49.919 4.31956C49.919 4.04146 49.8206 3.82704 49.6237 3.6763C49.4269 3.52296 49.07 3.37222 48.5529 3.22407Z" fill="#0252B3"/>
<path d="M55.6117 0.693936H53.7692V5.75421H53.0173V0.693936H51.1788V0.0779703H55.6117V0.693936Z" fill="#0252B3"/>
<path d="M60.4973 0.0779703V3.9375C60.4946 4.4729 60.324 4.91083 59.9855 5.2513C59.6495 5.59177 59.1929 5.7828 58.6155 5.82438L58.4147 5.83218C57.7874 5.83218 57.2874 5.66454 56.9148 5.32927C56.5421 4.994 56.3531 4.53267 56.3478 3.9453V0.0779703H57.0958V3.92191C57.0958 4.33255 57.21 4.65223 57.4383 4.88094C57.6667 5.10706 57.9921 5.22011 58.4147 5.22011C58.8425 5.22011 59.1692 5.10706 59.395 4.88094C59.6233 4.65483 59.7375 4.33645 59.7375 3.92581V0.0779703H60.4973Z" fill="#0252B3"/>
<path d="M61.6901 5.75421V0.0779703H63.3082C63.8068 0.0779703 64.2477 0.187129 64.6309 0.405446C65.0141 0.623762 65.3094 0.934344 65.5167 1.33719C65.7267 1.74004 65.833 2.20266 65.8356 2.72506V3.08762C65.8356 3.62302 65.7306 4.09214 65.5207 4.49499C65.3133 4.89784 65.0154 5.20712 64.627 5.42284C64.2412 5.63855 63.7911 5.74901 63.2767 5.75421H61.6901ZM62.446 0.693936V5.14214H63.2412C63.8239 5.14214 64.2766 4.96281 64.5994 4.60415C64.9249 4.24548 65.0876 3.73478 65.0876 3.07203V2.74066C65.0876 2.0961 64.9341 1.59579 64.627 1.23973C64.3226 0.881065 63.8895 0.699134 63.3278 0.693936H62.446Z" fill="#0252B3"/>
<path d="M70.2212 3.13051H67.7371V5.14214H70.6228V5.75421H66.9812V0.0779703H70.5834V0.693936H67.7371V2.51844H70.2212V3.13051Z" fill="#0252B3"/>
<path d="M75.969 5.75421H75.2092L72.3235 1.38007V5.75421H71.5637V0.0779703H72.3235L75.2171 4.4716V0.0779703H75.969V5.75421Z" fill="#0252B3"/>
<path d="M81.1538 0.693936H79.3114V5.75421H78.5594V0.693936H76.7209V0.0779703H81.1538V0.693936Z" fill="#0252B3"/>
<path d="M83.9135 4.63533C83.9135 4.44041 83.8387 4.28967 83.6891 4.18311C83.5422 4.07395 83.2836 3.98038 82.9136 3.90241C82.5461 3.82444 82.2535 3.73088 82.0357 3.62172C81.8204 3.51256 81.6604 3.38261 81.5554 3.23187C81.453 3.08113 81.4018 2.9018 81.4018 2.69387C81.4018 2.34821 81.5488 2.05582 81.8428 1.81671C82.1393 1.5776 82.5173 1.45804 82.9766 1.45804C83.4595 1.45804 83.8505 1.5815 84.1497 1.8284C84.4516 2.07531 84.6025 2.39109 84.6025 2.77574H83.8702C83.8702 2.57822 83.7849 2.40798 83.6143 2.26504C83.4464 2.12209 83.2338 2.05062 82.9766 2.05062C82.7115 2.05062 82.5041 2.1078 82.3545 2.22215C82.2049 2.33651 82.1301 2.48595 82.1301 2.67048C82.1301 2.84462 82.1997 2.97587 82.3388 3.06423C82.4779 3.1526 82.7285 3.23707 83.0907 3.31764C83.4556 3.39821 83.7508 3.49437 83.9765 3.60613C84.2022 3.71788 84.3689 3.85303 84.4765 4.01157C84.5867 4.16751 84.6418 4.35854 84.6418 4.58465C84.6418 4.96151 84.4896 5.2643 84.1852 5.49301C83.8807 5.71912 83.4857 5.83218 83.0002 5.83218C82.659 5.83218 82.3572 5.7724 82.0947 5.65285C81.8323 5.53329 81.6262 5.36696 81.4766 5.15384C81.3297 4.93812 81.2562 4.70551 81.2562 4.456H81.9845C81.9976 4.69771 82.0947 4.89004 82.2758 5.03298C82.4595 5.17333 82.701 5.2435 83.0002 5.2435C83.2758 5.2435 83.4962 5.18892 83.6616 5.07977C83.8295 4.96801 83.9135 4.81986 83.9135 4.63533Z" fill="#0252B3"/>
<path d="M87.0197 3.07593L87.9645 1.53602H88.8149L87.4212 3.62172L88.8582 5.75421H88.0157L87.0315 4.17531L86.0473 5.75421H85.2009L86.6378 3.62172L85.2442 1.53602H86.0867L87.0197 3.07593Z" fill="#0252B3"/>
<path d="M93.921 3.95309C93.8501 4.55347 93.6257 5.01739 93.2477 5.34486C92.8724 5.66974 92.3725 5.83218 91.7478 5.83218C91.0707 5.83218 90.5274 5.59177 90.118 5.11095C89.7112 4.63014 89.5078 3.98688 89.5078 3.18119V2.6354C89.5078 2.1078 89.6022 1.64387 89.7912 1.24363C89.9828 0.843379 90.2531 0.536696 90.6022 0.323577C90.9513 0.107859 91.3555 0 91.8148 0C92.4236 0 92.9118 0.168936 93.2793 0.506807C93.6467 0.842079 93.8606 1.3073 93.921 1.90248H93.1611C93.0955 1.45025 92.9525 1.12277 92.732 0.92005C92.5142 0.717327 92.2084 0.615965 91.8148 0.615965C91.3318 0.615965 90.9526 0.792698 90.677 1.14616C90.4041 1.49963 90.2676 2.00254 90.2676 2.65489V3.20458C90.2676 3.82055 90.3975 4.31046 90.6573 4.67432C90.9172 5.03818 91.2806 5.22011 91.7478 5.22011C92.1677 5.22011 92.4893 5.12655 92.7123 4.93942C92.9381 4.74969 93.0877 4.42092 93.1611 3.95309H93.921Z" fill="#0252B3"/>
<path d="M98.1964 3.13051H95.7122V5.14214H98.5979V5.75421H94.9563V0.0779703H98.5585V0.693936H95.7122V2.51844H98.1964V3.13051Z" fill="#0252B3"/>
<path d="M103.948 3.09932C103.948 3.65551 103.854 4.14152 103.665 4.55736C103.476 4.97061 103.208 5.28639 102.861 5.5047C102.515 5.72302 102.111 5.83218 101.649 5.83218C101.198 5.83218 100.797 5.72302 100.448 5.5047C100.099 5.28379 99.8275 4.97061 99.6333 4.56516C99.4417 4.15712 99.3433 3.6854 99.338 3.15V2.74066C99.338 2.19486 99.4338 1.71275 99.6254 1.29431C99.817 0.875867 100.087 0.556188 100.436 0.335272C100.788 0.111757 101.19 0 101.641 0C102.1 0 102.505 0.110458 102.854 0.331374C103.205 0.549691 103.476 0.868069 103.665 1.28651C103.854 1.70235 103.948 2.18707 103.948 2.74066V3.09932ZM103.196 2.73286C103.196 2.05972 103.06 1.54381 102.787 1.18515C102.514 0.823886 102.132 0.643255 101.641 0.643255C101.163 0.643255 100.787 0.823886 100.511 1.18515C100.238 1.54381 100.098 2.04282 100.09 2.68218V3.09932C100.09 3.75167 100.228 4.26498 100.503 4.63923C100.782 5.01089 101.163 5.19672 101.649 5.19672C102.137 5.19672 102.515 5.02129 102.783 4.67042C103.05 4.31696 103.188 3.81145 103.196 3.1539V2.73286Z" fill="#0252B3"/>
<path d="M107.448 4.63533C107.448 4.44041 107.373 4.28967 107.223 4.18311C107.077 4.07395 106.818 3.98038 106.448 3.90241C106.081 3.82444 105.788 3.73088 105.57 3.62172C105.355 3.51256 105.195 3.38261 105.09 3.23187C104.987 3.08113 104.936 2.9018 104.936 2.69387C104.936 2.34821 105.083 2.05582 105.377 1.81671C105.674 1.5776 106.052 1.45804 106.511 1.45804C106.994 1.45804 107.385 1.5815 107.684 1.8284C107.986 2.07531 108.137 2.39109 108.137 2.77574H107.405C107.405 2.57822 107.319 2.40798 107.149 2.26504C106.981 2.12209 106.768 2.05062 106.511 2.05062C106.246 2.05062 106.039 2.1078 105.889 2.22215C105.739 2.33651 105.665 2.48595 105.665 2.67048C105.665 2.84462 105.734 2.97587 105.873 3.06423C106.012 3.1526 106.263 3.23707 106.625 3.31764C106.99 3.39821 107.285 3.49437 107.511 3.60613C107.737 3.71788 107.903 3.85303 108.011 4.01157C108.121 4.16751 108.176 4.35854 108.176 4.58465C108.176 4.96151 108.024 5.2643 107.72 5.49301C107.415 5.71912 107.02 5.83218 106.535 5.83218C106.193 5.83218 105.892 5.7724 105.629 5.65285C105.367 5.53329 105.161 5.36696 105.011 5.15384C104.864 4.93812 104.791 4.70551 104.791 4.456H105.519C105.532 4.69771 105.629 4.89004 105.81 5.03298C105.994 5.17333 106.235 5.2435 106.535 5.2435C106.81 5.2435 107.031 5.18892 107.196 5.07977C107.364 4.96801 107.448 4.81986 107.448 4.63533Z" fill="#0252B3"/>
<path d="M18.6438 3.58776L1.25395 13.5323V33.4161L18.6438 43.3553L30.8632 36.3698V44.5495L18.409 53.9022L2.48655 45.247L0 49.749L18.8573 60L36.0284 47.107V13.5323L18.6438 3.58776ZM30.1695 30.0607L18.6438 36.6552L12.8063 40.0211V33.321L7.11283 30.066V16.8824L18.6385 10.2932L30.1695 16.8824V30.0607Z" fill="#0252B3"/>
<path d="M58.8503 23.6935H62.5534V30.7265C60.4913 32.1756 58.0224 32.9481 55.4939 32.9352C49.9659 32.9352 45.8892 29.1941 45.8892 23.963C45.8892 18.7318 49.9445 14.9801 55.5259 14.9801C58.6048 14.9801 61.1554 16.0369 62.8576 17.9814L60.2963 20.3698C59.7281 19.7395 59.0292 19.238 58.2474 18.8997C57.4655 18.5613 56.6192 18.3941 55.7661 18.4094C52.3617 18.4094 50.0352 20.6657 50.0352 23.963C50.0352 27.2602 52.3617 29.5165 55.718 29.5165C56.8162 29.5387 57.9018 29.2822 58.8716 28.7714L58.8503 23.6935Z" fill="#0252B3"/>
<path d="M77.4727 32.6393L74.0951 27.8044H70.3599V32.6393H66.3046V15.2866H73.887C78.5666 15.2866 81.496 17.6908 81.496 21.5799C81.5459 22.7494 81.227 23.9052 80.5835 24.8871C79.94 25.869 79.0039 26.6282 77.9049 27.0594L81.8322 32.634L77.4727 32.6393ZM73.6682 18.5732H70.3652V24.6076H73.6682C76.1441 24.6076 77.4034 23.4663 77.4034 21.5851C77.4034 19.704 76.1441 18.5732 73.6682 18.5732Z" fill="#0252B3"/>
<path d="M96.2393 28.9194H88.1073L86.5545 32.6182H82.3978L90.2043 15.2707H94.2116L102.045 32.6182H97.776L96.2393 28.9194ZM94.98 25.8705L92.2 19.2285L89.4199 25.8705H94.98Z" fill="#0252B3"/>
<path d="M119.942 15.2866V32.6393H116.612L107.877 22.103V32.6393H103.87V15.2866H107.253L115.961 25.8229V15.2866H119.942Z" fill="#0252B3"/>
<path d="M124.093 15.2866H132.054C137.785 15.2866 141.718 18.7054 141.718 23.963C141.718 29.2206 137.79 32.6393 132.054 32.6393H124.093V15.2866ZM131.851 29.3421C135.33 29.3421 137.609 27.2866 137.609 23.963C137.609 20.6393 135.33 18.5732 131.851 18.5732H128.148V29.3421H131.851Z" fill="#0252B3"/>
<path d="M45.6331 57.4055L47.0098 54.3831C48.7111 55.5465 50.7265 56.1762 52.7939 56.1902C55.1951 56.1902 56.1716 55.3976 56.1716 54.3302C56.1716 51.0858 45.9853 53.3157 45.9853 46.8692C45.9853 43.9207 48.3864 41.4636 53.3702 41.4636C55.5013 41.4198 57.6041 41.9514 59.4532 43.0013L58.1993 46.0502C56.7268 45.1879 55.0539 44.7182 53.3435 44.6869C50.9424 44.6869 50.0139 45.5799 50.0139 46.6684C50.0139 49.8652 60.2002 47.6618 60.2002 54.029C60.2002 56.93 57.7724 59.4082 52.7673 59.4082C49.9872 59.4135 47.1858 58.5944 45.6331 57.4055Z" fill="#0252B3"/>
<path d="M62.8309 51.4821V41.7648H66.8862V51.3342C66.8862 54.6314 68.3376 55.9947 70.7921 55.9947C73.2467 55.9947 74.7034 54.6261 74.7034 51.3342V41.7648H78.7107V51.4821C78.7107 56.5865 75.7599 59.4082 70.7761 59.4082C65.7923 59.4082 62.8309 56.5865 62.8309 51.4821Z" fill="#0252B3"/>
<path d="M98.6458 59.1123V48.7028L93.4913 57.2787H91.6664L86.5332 48.9247V59.1123H82.7073V41.7648H86.0636L92.6215 52.5442L99.078 41.7648H102.408L102.456 59.1123H98.6458Z" fill="#0252B3"/>
<path d="M122.546 59.1123V48.7028L117.391 57.2787H115.566L110.433 48.9247V59.1123H106.628V41.7648H109.985L116.543 52.5442L122.999 41.7648H126.329L126.377 59.1123H122.546Z" fill="#0252B3"/>
<path d="M130.501 41.7648H134.557V59.1123H130.501V41.7648Z" fill="#0252B3"/>
<path d="M142.342 45.0356H136.734V41.7648H152V45.0356H146.392V59.1123H142.337L142.342 45.0356Z" fill="#0252B3"/>
</svg>
