<svg width="626" height="247" viewBox="0 0 626 247" fill="none" xmlns="http://www.w3.org/2000/svg">
<path d="M122.842 2.83495H115.254V23.6664H112.157V2.83495H104.586V0.299225H122.842V2.83495Z" fill="white"/>
<path d="M144.487 23.6664H141.358V12.8655H129.457V23.6664H126.344V0.299225H129.457V10.3458H141.358V0.299225H144.487V23.6664Z" fill="white"/>
<path d="M199.961 13.2724C197.292 12.5128 195.346 11.5819 194.125 10.4799C192.914 9.3672 192.309 7.9977 192.309 6.37141C192.309 4.53114 193.049 3.01184 194.53 1.81352C196.021 0.604508 197.956 0 200.334 0C201.956 0 203.399 0.310279 204.663 0.930836C205.939 1.55139 206.922 2.40733 207.614 3.49866C208.317 4.58998 208.668 5.78295 208.668 7.07756H205.539C205.539 5.66526 205.085 4.55788 204.177 3.75544C203.269 2.9423 201.988 2.53572 200.334 2.53572C198.799 2.53572 197.6 2.87275 196.735 3.5468C195.881 4.21016 195.454 5.13564 195.454 6.32326C195.454 7.2755 195.859 8.08329 196.67 8.74664C197.492 9.3993 198.88 9.99846 200.837 10.5441C202.804 11.0898 204.339 11.6943 205.442 12.3576C206.555 13.0103 207.376 13.7753 207.906 14.6526C208.446 15.53 208.717 16.5625 208.717 17.7501C208.717 19.6438 207.971 21.1631 206.479 22.308C204.988 23.4421 202.993 24.0091 200.496 24.0091C198.875 24.0091 197.362 23.7042 195.957 23.0944C194.551 22.4738 193.465 21.6286 192.698 20.5586C191.941 19.4887 191.563 18.2743 191.563 16.9155H194.692C194.692 18.3278 195.216 19.4459 196.265 20.2697C197.324 21.0829 198.735 21.4895 200.496 21.4895C202.139 21.4895 203.399 21.1578 204.274 20.4944C205.15 19.8311 205.587 18.927 205.587 17.7822C205.587 16.6373 205.182 15.7547 204.371 15.1341C203.561 14.5028 202.091 13.8823 199.961 13.2724Z" fill="white"/>
<path d="M229.032 2.8567H221.444V23.6882H218.348V2.8567H210.776V0.320978H229.032V2.8567Z" fill="white"/>
<path d="M249.153 0.320978V16.2094C249.142 18.4134 248.44 20.2163 247.045 21.6179C245.662 23.0195 243.781 23.8059 241.403 23.977L240.576 24.0091C237.993 24.0091 235.934 23.319 234.399 21.9388C232.864 20.5586 232.086 18.6595 232.064 16.2415V0.320978H235.145V16.1452C235.145 17.8357 235.615 19.1517 236.555 20.0932C237.496 21.024 238.836 21.4895 240.576 21.4895C242.338 21.4895 243.684 21.024 244.613 20.0932C245.554 19.1624 246.024 17.8517 246.024 16.1612V0.320978H249.153Z" fill="white"/>
<path d="M254.066 23.6882V0.320978H260.73C262.783 0.320978 264.599 0.770347 266.177 1.66908C267.756 2.56782 268.972 3.84638 269.825 5.50477C270.69 7.16315 271.128 9.06762 271.139 11.2182V12.7107C271.139 14.9148 270.706 16.846 269.842 18.5044C268.988 20.1628 267.761 21.436 266.161 22.324C264.572 23.212 262.719 23.6668 260.6 23.6882H254.066ZM257.179 2.8567V21.1685H260.454C262.854 21.1685 264.718 20.4302 266.048 18.9537C267.388 17.4772 268.058 15.3748 268.058 12.6465V11.2824C268.058 8.62895 267.426 6.56935 266.161 5.10355C264.907 3.62705 263.124 2.8781 260.811 2.8567H257.179Z" fill="white"/>
<path d="M289.201 12.8873H278.97V21.1685H290.854V23.6882H275.857V0.320978H290.692V2.8567H278.97V10.3676H289.201V12.8873Z" fill="white"/>
<path d="M312.872 23.6882H309.743L297.859 5.68131V23.6882H294.729V0.320978H297.859L309.776 18.4081V0.320978H312.872V23.6882Z" fill="white"/>
<path d="M334.226 2.8567H326.638V23.6882H323.541V2.8567H315.969V0.320978H334.226V2.8567Z" fill="white"/>
<path d="M345.591 19.0821C345.591 18.2797 345.283 17.6591 344.667 17.2205C344.062 16.7711 342.997 16.3859 341.473 16.0649C339.96 15.744 338.755 15.3588 337.857 14.9094C336.971 14.46 336.312 13.9251 335.879 13.3045C335.458 12.684 335.247 11.9457 335.247 11.0898C335.247 9.66678 335.852 8.46311 337.063 7.47878C338.284 6.49445 339.841 6.00228 341.732 6.00228C343.721 6.00228 345.332 6.5105 346.564 7.52693C347.807 8.54336 348.429 9.84332 348.429 11.4268H345.413C345.413 10.6137 345.062 9.91286 344.359 9.3244C343.667 8.73595 342.792 8.44172 341.732 8.44172C340.641 8.44172 339.787 8.6771 339.171 9.14787C338.555 9.61863 338.247 10.2338 338.247 10.9935C338.247 11.7103 338.533 12.2507 339.106 12.6144C339.679 12.9782 340.711 13.3259 342.203 13.6576C343.705 13.9893 344.921 14.3852 345.851 14.8452C346.78 15.3053 347.467 15.8617 347.91 16.5143C348.364 17.1563 348.591 17.9427 348.591 18.8735C348.591 20.4249 347.964 21.6714 346.71 22.6129C345.456 23.5437 343.829 24.0091 341.83 24.0091C340.425 24.0091 339.181 23.7631 338.101 23.2709C337.02 22.7787 336.171 22.094 335.555 21.2166C334.95 20.3286 334.647 19.371 334.647 18.3439H337.647C337.701 19.3389 338.101 20.1307 338.846 20.7191C339.603 21.2969 340.597 21.5858 341.83 21.5858C342.965 21.5858 343.873 21.3611 344.554 20.9117C345.245 20.4516 345.591 19.8418 345.591 19.0821Z" fill="white"/>
<path d="M358.384 12.6626L362.275 6.32326H365.777L360.037 14.9094L365.955 23.6882H362.486L358.432 17.1884L354.379 23.6882H350.893L356.811 14.9094L351.071 6.32326H354.541L358.384 12.6626Z" fill="white"/>
<path d="M386.806 16.2736C386.514 18.7451 385.59 20.6549 384.033 22.003C382.488 23.3404 380.429 24.0091 377.856 24.0091C375.067 24.0091 372.83 23.0195 371.144 21.0401C369.468 19.0607 368.631 16.4127 368.631 13.0959V10.849C368.631 8.6771 369.02 6.76728 369.798 5.1196C370.587 3.47191 371.7 2.2094 373.138 1.33206C374.576 0.444019 376.24 0 378.132 0C380.639 0 382.65 0.695452 384.163 2.08636C385.676 3.46656 386.557 5.38173 386.806 7.83186H383.677C383.407 5.97019 382.817 4.62208 381.91 3.78754C381.012 2.953 379.753 2.53572 378.132 2.53572C376.143 2.53572 374.581 3.26327 373.446 4.71837C372.322 6.17347 371.76 8.24378 371.76 10.9293V13.1922C371.76 15.7279 372.295 17.7447 373.365 19.2426C374.435 20.7405 375.932 21.4895 377.856 21.4895C379.586 21.4895 380.91 21.1043 381.828 20.3339C382.758 19.5529 383.374 18.1994 383.677 16.2736H386.806Z" fill="white"/>
<path d="M404.414 12.8873H394.183V21.1685H406.068V23.6882H391.07V0.320978H405.906V2.8567H394.183V10.3676H404.414V12.8873Z" fill="white"/>
<path d="M428.102 12.7589C428.102 15.0485 427.713 17.0493 426.934 18.7612C426.156 20.4623 425.054 21.7623 423.627 22.661C422.2 23.5598 420.536 24.0091 418.633 24.0091C416.774 24.0091 415.126 23.5598 413.688 22.661C412.25 21.7516 411.132 20.4623 410.332 18.7933C409.543 17.1135 409.137 15.1716 409.116 12.9675V11.2824C409.116 9.03552 409.51 7.05081 410.299 5.32823C411.088 3.60565 412.202 2.28964 413.639 1.3802C415.088 0.460068 416.742 0 418.601 0C420.492 0 422.157 0.454719 423.594 1.36416C425.043 2.26289 426.156 3.57355 426.934 5.29613C427.713 7.00801 428.102 9.00343 428.102 11.2824V12.7589ZM425.005 11.2503C425.005 8.47916 424.443 6.35536 423.319 4.87886C422.195 3.39167 420.622 2.64807 418.601 2.64807C416.633 2.64807 415.082 3.39167 413.947 4.87886C412.823 6.35536 412.245 8.40962 412.213 11.0416V12.7589C412.213 15.4444 412.78 17.5575 413.915 19.0982C415.061 20.6282 416.633 21.3932 418.633 21.3932C420.644 21.3932 422.2 20.671 423.303 19.2266C424.405 17.7715 424.973 15.6905 425.005 12.9836V11.2503Z" fill="white"/>
<path d="M442.516 19.0821C442.516 18.2797 442.208 17.6591 441.591 17.2205C440.986 16.7711 439.922 16.3859 438.397 16.0649C436.884 15.744 435.679 15.3588 434.782 14.9094C433.895 14.46 433.236 13.9251 432.804 13.3045C432.382 12.684 432.171 11.9457 432.171 11.0898C432.171 9.66678 432.777 8.46311 433.987 7.47878C435.209 6.49445 436.765 6.00228 438.657 6.00228C440.646 6.00228 442.256 6.5105 443.488 7.52693C444.732 8.54336 445.353 9.84332 445.353 11.4268H442.337C442.337 10.6137 441.986 9.91286 441.283 9.3244C440.592 8.73595 439.716 8.44172 438.657 8.44172C437.565 8.44172 436.711 8.6771 436.095 9.14787C435.479 9.61863 435.171 10.2338 435.171 10.9935C435.171 11.7103 435.457 12.2507 436.03 12.6144C436.603 12.9782 437.635 13.3259 439.127 13.6576C440.629 13.9893 441.845 14.3852 442.775 14.8452C443.705 15.3053 444.391 15.8617 444.834 16.5143C445.288 17.1563 445.515 17.9427 445.515 18.8735C445.515 20.4249 444.888 21.6714 443.634 22.6129C442.381 23.5437 440.754 24.0091 438.754 24.0091C437.349 24.0091 436.106 23.7631 435.025 23.2709C433.944 22.7787 433.096 22.094 432.479 21.2166C431.874 20.3286 431.572 19.371 431.572 18.3439H434.571C434.625 19.3389 435.025 20.1307 435.771 20.7191C436.527 21.2969 437.522 21.5858 438.754 21.5858C439.889 21.5858 440.797 21.3611 441.478 20.9117C442.17 20.4516 442.516 19.8418 442.516 19.0821Z" fill="white"/>
<path d="M76.7831 14.7696L5.16429 55.7079V137.563L76.7831 178.479L127.107 149.723V183.396L75.8162 221.898L10.2407 186.267L0 204.8L77.6622 247L148.38 193.924V55.7079L76.7831 14.7696ZM124.251 123.75L76.7831 150.897L52.7417 164.754V137.171L29.2936 123.772V69.4991L76.7611 42.3736L124.251 69.4991V123.75Z" fill="white"/>
<path d="M242.37 97.5381H257.621V126.491C249.129 132.456 238.961 135.636 228.547 135.583C205.781 135.583 188.991 120.183 188.991 98.6475C188.991 77.1125 205.693 61.6681 228.679 61.6681C241.359 61.6681 251.864 66.0187 258.874 74.0236L248.326 83.8558C245.986 81.2608 243.107 79.1964 239.887 77.8036C236.667 76.4108 233.182 75.7225 229.668 75.7856C215.648 75.7856 206.066 85.0739 206.066 98.6475C206.066 112.221 215.648 121.509 229.47 121.509C233.993 121.601 238.464 120.545 242.458 118.442L242.37 97.5381Z" fill="white"/>
<path d="M319.065 134.365L305.155 114.462H289.772V134.365H273.07V62.9298H304.298C323.57 62.9298 335.635 72.8272 335.635 88.8371C335.84 93.6515 334.527 98.4099 331.877 102.452C329.227 106.494 325.371 109.619 320.845 111.395L337.019 134.343L319.065 134.365ZM303.397 76.4599H289.794V101.301H303.397C313.593 101.301 318.78 96.6028 318.78 88.8588C318.78 81.1149 313.593 76.4599 303.397 76.4599Z" fill="white"/>
<path d="M396.354 119.051H362.863L356.468 134.278H339.349L371.499 62.8645H388.003L420.263 134.278H402.683L396.354 119.051ZM391.168 106.5L379.718 79.1572L368.269 106.5H391.168Z" fill="white"/>
<path d="M493.97 62.9298V134.365H480.257L444.283 90.9906V134.365H427.779V62.9298H441.712L477.576 106.304V62.9298H493.97Z" fill="white"/>
<path d="M511.067 62.9298H543.855C567.457 62.9298 583.653 77.0037 583.653 98.6475C583.653 120.291 567.479 134.365 543.855 134.365H511.067V62.9298ZM543.02 120.792C557.348 120.792 566.732 112.33 566.732 98.6475C566.732 84.9651 557.348 76.4599 543.02 76.4599H527.769V120.792H543.02Z" fill="white"/>
<path d="M187.936 236.319L193.606 223.877C200.613 228.666 208.913 231.258 217.428 231.316C227.317 231.316 231.338 228.053 231.338 223.659C231.338 210.303 189.387 219.483 189.387 192.945C189.387 180.807 199.276 170.692 219.801 170.692C228.578 170.512 237.238 172.7 244.853 177.022L239.689 189.573C233.625 186.023 226.735 184.09 219.691 183.961C209.802 183.961 205.978 187.637 205.978 192.118C205.978 205.279 247.93 196.208 247.93 222.42C247.93 234.362 237.931 244.564 217.318 244.564C205.868 244.585 194.331 241.214 187.936 236.319Z" fill="white"/>
<path d="M258.764 211.935V171.932H275.465V211.326C275.465 224.899 281.443 230.512 291.552 230.512C301.661 230.512 307.66 224.878 307.66 211.326V171.932H324.164V211.935C324.164 232.948 312.011 244.564 291.486 244.564C270.96 244.564 258.764 232.948 258.764 211.935Z" fill="white"/>
<path d="M406.265 243.346V200.493L385.036 235.797H377.521L356.38 201.407V243.346H340.623V171.932H354.446L381.454 216.307L408.045 171.932H421.758L421.956 243.346H406.265Z" fill="white"/>
<path d="M504.694 243.346V200.493L483.466 235.797H475.95L454.809 201.407V243.346H439.141V171.932H452.963L479.971 216.307L506.562 171.932H520.275L520.473 243.346H504.694Z" fill="white"/>
<path d="M537.46 171.932H554.161V243.346H537.46V171.932Z" fill="white"/>
<path d="M586.224 185.397H563.128V171.932H626V185.397H602.904V243.346H586.202L586.224 185.397Z" fill="white"/>
</svg>
