<svg width="30" height="30" viewBox="0 0 30 30" fill="none" xmlns="http://www.w3.org/2000/svg">
<circle cx="15" cy="15" r="14" stroke="#4F4F4F" stroke-width="2"/>
<path d="M13.323 12.233H15.975V21.379H13.323V12.233ZM14.649 10.958C14.1617 10.958 13.765 10.8163 13.459 10.533C13.153 10.2497 13 9.89833 13 9.479C13 9.05967 13.153 8.70833 13.459 8.425C13.765 8.14167 14.1617 8 14.649 8C15.1363 8 15.533 8.136 15.839 8.408C16.145 8.68 16.298 9.02 16.298 9.428C16.298 9.87 16.145 10.2383 15.839 10.533C15.533 10.8163 15.1363 10.958 14.649 10.958Z" fill="#4F4F4F"/>
</svg>
