<svg width="30" height="30" viewBox="0 0 30 30" fill="none" xmlns="http://www.w3.org/2000/svg">
<path d="M5.18062 15.8145V14.8145H4.18062H2.17976C1.66016 14.8145 1.25459 14.4868 1.07975 13.977C0.903954 13.4645 1.01132 12.8945 1.44793 12.5121L14.2682 1.28179C14.6971 0.906071 15.3029 0.906071 15.7318 1.28179L28.5521 12.5121C28.9887 12.8946 29.0961 13.4645 28.9203 13.977C28.7454 14.4868 28.3398 14.8145 27.8202 14.8145H26.2394H25.2394V15.8145V27.6743C25.2394 28.457 24.6504 29 24.0336 29H19.2983V23.023C19.2983 21.2368 17.9121 19.6973 16.0924 19.6973H14.3277C12.508 19.6973 11.1218 21.2368 11.1218 23.023V29H6.3865C5.76968 29 5.18062 28.457 5.18062 27.6743V15.8145Z" stroke="#4F4F4F" stroke-width="2"/>
</svg>
