<svg width="60" height="60" viewBox="0 0 60 60" fill="none" xmlns="http://www.w3.org/2000/svg">
<path d="M30.0067 14.5044C21.4936 14.5044 14.6269 21.3199 14.6269 29.7695C14.6269 38.219 21.4936 45.0345 30.0067 45.0345C38.5198 45.0345 45.3865 38.219 45.3865 29.7695C45.3865 21.3199 38.5198 14.5044 30.0067 14.5044ZM30.0067 39.6937C24.5053 39.6937 20.0078 35.2431 20.0078 29.7695C20.0078 24.2958 24.4919 19.8452 30.0067 19.8452C35.5215 19.8452 40.0056 24.2958 40.0056 29.7695C40.0056 35.2431 35.5081 39.6937 30.0067 39.6937V39.6937ZM49.6029 13.88C49.6029 15.8596 47.9967 17.4405 46.0156 17.4405C44.0212 17.4405 42.4283 15.8463 42.4283 13.88C42.4283 11.9138 44.0346 10.3195 46.0156 10.3195C47.9967 10.3195 49.6029 11.9138 49.6029 13.88ZM59.7892 17.4937C59.5616 12.7242 58.464 8.49939 54.9437 5.01859C51.4367 1.5378 47.1801 0.448385 42.3748 0.209247C37.4222 -0.0697488 22.5778 -0.0697488 17.6252 0.209247C12.8332 0.4351 8.57669 1.52451 5.05633 5.00531C1.53597 8.48611 0.451757 12.7109 0.21082 17.4804C-0.0702733 22.396 -0.0702733 37.1296 0.21082 42.0453C0.438371 46.8148 1.53597 51.0395 5.05633 54.5203C8.57669 58.0011 12.8199 59.0906 17.6252 59.3297C22.5778 59.6087 37.4222 59.6087 42.3748 59.3297C47.1801 59.1038 51.4367 58.0144 54.9437 54.5203C58.4506 51.0395 59.5482 46.8148 59.7892 42.0453C60.0703 37.1296 60.0703 22.4093 59.7892 17.4937V17.4937ZM53.391 47.3196C52.3469 49.9236 50.3257 51.9297 47.6888 52.9792C43.7401 54.5336 34.3703 54.1749 30.0067 54.1749C25.6431 54.1749 16.2599 54.5203 12.3246 52.9792C9.70106 51.943 7.67987 49.9368 6.62242 47.3196C5.05633 43.4004 5.41774 34.1005 5.41774 29.7695C5.41774 25.4384 5.06972 16.1253 6.62242 12.2193C7.66648 9.61538 9.68767 7.60927 12.3246 6.55971C16.2733 5.00531 25.6431 5.36402 30.0067 5.36402C34.3703 5.36402 43.7535 5.01859 47.6888 6.55971C50.3123 7.59598 52.3335 9.60209 53.391 12.2193C54.9571 16.1386 54.5957 25.4384 54.5957 29.7695C54.5957 34.1005 54.9571 43.4137 53.391 47.3196Z" fill="white"/>
</svg>
