<svg width="60" height="60" viewBox="0 0 60 60" fill="none" xmlns="http://www.w3.org/2000/svg">
<path d="M30 0C13.431 0 0 13.431 0 30C0 46.569 13.431 60 30 60C46.569 60 60 46.569 60 30C60 13.431 46.569 0 30 0ZM28.6282 29.0601C28.2786 29.6431 27.6484 30 26.9685 30H26.931C26.4181 30 25.9258 30.2044 25.5629 30.5673L24.8782 31.252C24.5008 31.6294 24.5008 32.2427 24.8782 32.6202L25.5629 33.3048C25.9258 33.6677 26.1302 34.1601 26.1302 34.673V35.8065C26.1302 36.8758 25.2641 37.7419 24.1948 37.7419H23.4556C22.7226 37.7419 22.0524 37.3282 21.7246 36.6714L18.9883 31.2C18.6931 30.6097 17.9056 30.4815 17.4387 30.9484L15.0835 33.3024C14.7206 33.6653 14.2282 33.8698 13.7153 33.8698H6.14637C5.94194 32.6069 5.80645 31.321 5.80645 30C5.80645 16.6597 16.6597 5.80645 30 5.80645C32.602 5.80645 35.1048 6.23105 37.4552 6.99435L31.3875 11.6552C30.7694 12.0677 30.8274 12.9931 31.4915 13.3258L32.8016 13.9802C33.4573 14.3081 33.871 14.9782 33.871 15.7113V25.1613C33.871 25.696 33.4379 26.129 32.9032 26.129H32.5331C32.1665 26.129 31.8315 25.9222 31.6681 25.5944C31.4794 25.2169 30.9472 25.1964 30.7294 25.5581L28.6282 29.0601V29.0601ZM49.3548 42.3907C49.3548 42.9036 49.1504 43.396 48.7875 43.7589L47.6298 44.9165C47.2669 45.2794 46.7746 45.4839 46.2617 45.4839H44.4278C43.9149 45.4839 43.4226 45.2794 43.0597 44.9165L41.4859 43.3427C41.0905 42.9474 40.5994 42.6611 40.0606 42.5119C39.5217 42.3626 38.9533 42.3555 38.4109 42.4911L35.8379 43.1347C35.6843 43.1734 35.527 43.1927 35.3685 43.1927H34.1177C33.6048 43.1927 33.1125 42.9883 32.7496 42.6254L31.3089 41.1847C31.1275 41.003 31.0257 40.7567 31.0258 40.5V39.2661C31.0258 38.8706 31.2665 38.5149 31.6343 38.3673L36.3931 36.4633C36.6327 36.3677 36.8601 36.2431 37.0694 36.0944L39.9375 34.0512C40.1014 33.9345 40.2976 33.8719 40.4988 33.8722H41.9613C42.352 33.8722 42.7052 34.1069 42.8552 34.4685L43.5024 36.023C43.5392 36.1111 43.6012 36.1863 43.6806 36.2393C43.76 36.2923 43.8533 36.3205 43.9488 36.3206H44.4085C44.6238 36.3206 44.8137 36.1778 44.873 35.9722L45.381 34.2218C45.4415 34.0149 45.6302 33.8734 45.8456 33.8734H46.5786C46.846 33.8734 47.0625 34.0899 47.0625 34.3573V35.9214C47.0625 36.1778 47.1641 36.4246 47.3456 36.606L48.7863 38.0468C49.1492 38.4097 49.3536 38.902 49.3536 39.4149V42.3907H49.3548Z" fill="white"/>
</svg>
