<svg width="8" height="30" viewBox="0 0 8 30" fill="none" xmlns="http://www.w3.org/2000/svg">
<path d="M1 4C1 5.65685 2.34315 7 4 7C5.65685 7 7 5.65685 7 4C7 2.34315 5.65685 1 4 1C2.34315 1 1 2.34315 1 4Z" fill="#4F4F4F" stroke="#4F4F4F" stroke-width="2"/>
<path d="M1 15C1 16.6569 2.34315 18 4 18C5.65685 18 7 16.6569 7 15C7 13.3431 5.65685 12 4 12C2.34315 12 1 13.3431 1 15Z" fill="#4F4F4F" stroke="#4F4F4F" stroke-width="2"/>
<path d="M1 26C1 27.6569 2.34315 29 4 29C5.65685 29 7 27.6569 7 26C7 24.3431 5.65685 23 4 23C2.34315 23 1 24.3431 1 26Z" fill="#4F4F4F" stroke="#4F4F4F" stroke-width="2"/>
</svg>
